<svg aria-roledescription="er" role="graphics-document document" viewBox="-75.64844131469727 0 862.7409057617188 911.1015625" style="max-width: 862.741px; background-color: white;" xmlns:xlink="http://www.w3.org/1999/xlink" xmlns="http://www.w3.org/2000/svg" width="100%" id="my-svg"><style>#my-svg{font-family:"trebuchet ms",verdana,arial,sans-serif;font-size:16px;fill:#000000;}#my-svg .error-icon{fill:#552222;}#my-svg .error-text{fill:#552222;stroke:#552222;}#my-svg .edge-thickness-normal{stroke-width:2px;}#my-svg .edge-thickness-thick{stroke-width:3.5px;}#my-svg .edge-pattern-solid{stroke-dasharray:0;}#my-svg .edge-pattern-dashed{stroke-dasharray:3;}#my-svg .edge-pattern-dotted{stroke-dasharray:2;}#my-svg .marker{fill:#000000;stroke:#000000;}#my-svg .marker.cross{stroke:#000000;}#my-svg svg{font-family:"trebuchet ms",verdana,arial,sans-serif;font-size:16px;}#my-svg .entityBox{fill:#cde498;stroke:#13540c;}#my-svg .attributeBoxOdd{fill:#ffffff;stroke:#13540c;}#my-svg .attributeBoxEven{fill:#f2f2f2;stroke:#13540c;}#my-svg .relationshipLabelBox{fill:hsl(78.1578947368, 58.4615384615%, 84.5098039216%);opacity:0.7;background-color:hsl(78.1578947368, 58.4615384615%, 84.5098039216%);}#my-svg .relationshipLabelBox rect{opacity:0.5;}#my-svg .relationshipLine{stroke:#000000;}#my-svg .entityTitleText{text-anchor:middle;font-size:18px;fill:#000000;}#my-svg #MD_PARENT_START{fill:#f5f5f5!important;stroke:#000000!important;stroke-width:1;}#my-svg #MD_PARENT_END{fill:#f5f5f5!important;stroke:#000000!important;stroke-width:1;}#my-svg :root{--mermaid-font-family:"trebuchet ms",verdana,arial,sans-serif;}</style><g/><defs><marker orient="auto" markerHeight="240" markerWidth="190" refY="7" refX="0" id="MD_PARENT_START"><path d="M 18,7 L9,13 L1,7 L9,1 Z"/></marker></defs><defs><marker orient="auto" markerHeight="28" markerWidth="20" refY="7" refX="19" id="MD_PARENT_END"><path d="M 18,7 L9,13 L1,7 L9,1 Z"/></marker></defs><defs><marker orient="auto" markerHeight="18" markerWidth="18" refY="9" refX="0" id="ONLY_ONE_START"><path d="M9,0 L9,18 M15,0 L15,18" fill="none" stroke="gray"/></marker></defs><defs><marker orient="auto" markerHeight="18" markerWidth="18" refY="9" refX="18" id="ONLY_ONE_END"><path d="M3,0 L3,18 M9,0 L9,18" fill="none" stroke="gray"/></marker></defs><defs><marker orient="auto" markerHeight="18" markerWidth="30" refY="9" refX="0" id="ZERO_OR_ONE_START"><circle r="6" cy="9" cx="21" fill="white" stroke="gray"/><path d="M9,0 L9,18" fill="none" stroke="gray"/></marker></defs><defs><marker orient="auto" markerHeight="18" markerWidth="30" refY="9" refX="30" id="ZERO_OR_ONE_END"><circle r="6" cy="9" cx="9" fill="white" stroke="gray"/><path d="M21,0 L21,18" fill="none" stroke="gray"/></marker></defs><defs><marker orient="auto" markerHeight="36" markerWidth="45" refY="18" refX="18" id="ONE_OR_MORE_START"><path d="M0,18 Q 18,0 36,18 Q 18,36 0,18 M42,9 L42,27" fill="none" stroke="gray"/></marker></defs><defs><marker orient="auto" markerHeight="36" markerWidth="45" refY="18" refX="27" id="ONE_OR_MORE_END"><path d="M3,9 L3,27 M9,18 Q27,0 45,18 Q27,36 9,18" fill="none" stroke="gray"/></marker></defs><defs><marker orient="auto" markerHeight="36" markerWidth="57" refY="18" refX="18" id="ZERO_OR_MORE_START"><circle r="6" cy="18" cx="48" fill="white" stroke="gray"/><path d="M0,18 Q18,0 36,18 Q18,36 0,18" fill="none" stroke="gray"/></marker></defs><defs><marker orient="auto" markerHeight="36" markerWidth="57" refY="18" refX="39" id="ZERO_OR_MORE_END"><circle r="6" cy="18" cx="9" fill="white" stroke="gray"/><path d="M21,18 Q39,0 57,18 Q39,36 21,18" fill="none" stroke="gray"/></marker></defs><path style="stroke: gray; fill: none;" marker-start="url(#ZERO_OR_MORE_START)" marker-end="url(#ZERO_OR_MORE_END)" d="M296.4282476174465,202.458984375L293.47796676453873,210.79231770833334C290.527685911631,219.12565104166666,284.6271242058155,235.79231770833334,284.8774514684497,252.458984375C285.1277787310839,269.1256510416667,291.5289949621678,285.7923177083333,294.7296030777097,294.1256510416667L297.9302111932517,302.458984375" class="er relationshipLine"/><path style="stroke: gray; fill: none;" marker-start="url(#ZERO_OR_MORE_START)" marker-end="url(#ZERO_OR_MORE_END)" d="M260.5625,136.2747629057101L207.86067708333334,155.63879981725842C155.15885416666666,175.00283672880673,49.755208333333336,213.73091055190335,-2.9466145833333335,254.7922130884517C-55.6484375,295.853515625,-55.6484375,339.248046875,-55.6484375,382.642578125C-55.6484375,426.037109375,-55.6484375,469.431640625,-42.82885996940499,501.3108723958333C-30.009282438809972,533.1901041666666,-4.370127377619942,553.5540364583334,8.449450152975073,563.7360026041666L21.269027683570087,573.91796875" class="er relationshipLine"/><path style="stroke: gray; fill: none;" marker-start="url(#ZERO_OR_MORE_START)" marker-end="url(#ZERO_OR_MORE_END)" d="M396.890625,163.44251419326008L416.2591145833333,178.2785925568834C435.6276041666667,193.1146709205067,474.3645833333333,222.78682764775337,493.7330729166667,259.3201716363767C513.1015625,295.853515625,513.1015625,339.248046875,513.1015625,382.642578125C513.1015625,426.037109375,513.1015625,469.431640625,525.5651041666666,501.0280904473199C538.0286458333334,532.6245402696397,562.9557291666666,552.4229086642795,575.4192708333334,562.3220928615993L587.8828125,572.2212770589192" class="er relationshipLine"/><path style="stroke: gray; fill: none;" marker-start="url(#ZERO_OR_ONE_START)" marker-end="url(#ONLY_ONE_END)" d="M359.5229138067483,302.458984375L362.7235219222903,294.1256510416667C365.9241300378322,285.7923177083333,372.3253462689161,269.1256510416667,372.5756735315503,252.458984375C372.8260007941845,235.79231770833334,366.92543908836905,219.12565104166666,363.97515823546127,210.79231770833334L361.0248773825535,202.458984375" class="er relationshipLine"/><path style="stroke: gray; fill: none;" marker-start="url(#ZERO_OR_MORE_START)" marker-end="url(#ZERO_OR_MORE_END)" d="M259.9765625,414.1155348557692L224.0390625,430.5673076923077C188.1015625,447.0190805288462,116.2265625,479.9226262019231,84.56225501019834,506.55636518429486C52.89794752039668,533.1901041666666,61.44433254079335,553.5540364583334,65.71752505099168,563.7360026041666L69.99071756119002,573.91796875" class="er relationshipLine"/><path style="stroke: gray; fill: none;" marker-start="url(#ZERO_OR_MORE_START)" marker-end="url(#ZERO_OR_MORE_END)" d="M397.4765625,414.1155348557692L433.4140625,430.5673076923077C469.3515625,447.0190805288462,541.2265625,479.9226262019231,580.6614162600652,504.70773237179486C620.0962700201303,529.4928385416666,627.0909775402605,546.1595052083334,630.5883313003256,554.4928385416666L634.0856850603908,562.826171875" class="er relationshipLine"/><path style="stroke: gray; fill: none;" marker-start="url(#ZERO_OR_ONE_START)" marker-end="url(#ONLY_ONE_END)" d="M94.3515625,690.009765625L94.3515625,700.1917317708334C94.3515625,710.3736979166666,94.3515625,730.7376302083334,94.3515625,749.2529296875C94.3515625,767.7682291666666,94.3515625,784.4348958333334,94.3515625,792.7682291666666L94.3515625,801.1015625" class="er relationshipLine"/><path style="stroke: gray; fill: none;" marker-start="url(#ZERO_OR_ONE_START)" marker-end="url(#ONLY_ONE_END)" d="M118.71240743880998,573.91796875L122.98559994900832,563.7360026041666C127.25879245920665,553.5540364583334,135.80517747960332,533.1901041666666,140.07836998980167,501.3108723958333C144.3515625,469.431640625,144.3515625,426.037109375,144.3515625,382.642578125C144.3515625,339.248046875,144.3515625,295.853515625,163.72005208333334,259.3201716363767C183.08854166666666,222.78682764775337,221.82552083333334,193.1146709205067,241.19401041666666,178.2785925568834L260.5625,163.44251419326008" class="er relationshipLine"/><path style="stroke: gray; fill: none;" marker-start="url(#ZERO_OR_ONE_START)" marker-end="url(#ONLY_ONE_END)" d="M168.703125,594.1694189778646L195.37369791666666,580.6122111273871C222.04427083333334,567.0550032769097,275.3854166666667,539.9405875759549,302.0559895833333,518.050046392144C328.7265625,496.1595052083333,328.7265625,479.4928385416667,328.7265625,471.1595052083333L328.7265625,462.826171875" class="er relationshipLine"/><path style="stroke: gray; fill: none;" marker-start="url(#ZERO_OR_ONE_START)" marker-end="url(#ONLY_ONE_END)" d="M663.1015625,701.1015625L663.1015625,709.4348958333334C663.1015625,717.7682291666666,663.1015625,734.4348958333334,663.1015625,751.1015625C663.1015625,767.7682291666666,663.1015625,784.4348958333334,663.1015625,792.7682291666666L663.1015625,801.1015625" class="er relationshipLine"/><path style="stroke: gray; fill: none;" marker-start="url(#ZERO_OR_ONE_START)" marker-end="url(#ONLY_ONE_END)" d="M692.1174399396092,562.826171875L695.6147936996744,554.4928385416666C699.1121474597394,546.1595052083334,706.1068549798697,529.4928385416666,709.604208739935,499.4622395833333C713.1015625,469.431640625,713.1015625,426.037109375,713.1015625,382.642578125C713.1015625,339.248046875,713.1015625,295.853515625,660.3997395833334,254.7922130884517C607.6979166666666,213.73091055190335,502.2942708333333,175.00283672880673,449.5924479166667,155.63879981725842L396.890625,136.2747629057101" class="er relationshipLine"/><path style="stroke: gray; fill: none;" marker-start="url(#ZERO_OR_ONE_START)" marker-end="url(#ONLY_ONE_END)" d="M738.3203125,572.2212770589192L750.7838541666666,562.3220928615993C763.2473958333334,552.4229086642795,788.1744791666666,532.6245402696397,731.3671875,504.1077023424812C674.5598958333334,475.5908644153226,536.0182291666666,438.35555695564517,466.7473958333333,419.7379032258065L397.4765625,401.12024949596776" class="er relationshipLine"/><g transform="translate(22.8671875,801.1015625 )" id="entity-MemberRole-333c5427-bf7a-549d-aab6-54744779d2bb"><rect height="90" width="142.96875" y="0" x="0" class="er entityBox"/><text style="dominant-baseline: middle; text-anchor: middle; font-size: 12px;" transform="translate(71.484375,12)" y="0" x="0" id="text-entity-MemberRole-333c5427-bf7a-549d-aab6-54744779d2bb" class="er entityLabel">MemberRole</text><rect height="22" width="71.484375" y="24" x="0" class="er attributeBoxOdd"/><text style="dominant-baseline: middle; font-size: 10.2px;" transform="translate(5,35)" y="0" x="0" id="text-entity-MemberRole-333c5427-bf7a-549d-aab6-54744779d2bb-attr-1-type" class="er entityLabel">ADMIN</text><rect height="22" width="71.484375" y="24" x="71.484375" class="er attributeBoxOdd"/><text style="dominant-baseline: middle; font-size: 10.2px;" transform="translate(76.484375,35)" y="0" x="0" id="text-entity-MemberRole-333c5427-bf7a-549d-aab6-54744779d2bb-attr-1-name" class="er entityLabel">ADMIN</text><rect height="22" width="71.484375" y="46" x="0" class="er attributeBoxEven"/><text style="dominant-baseline: middle; font-size: 10.2px;" transform="translate(5,57)" y="0" x="0" id="text-entity-MemberRole-333c5427-bf7a-549d-aab6-54744779d2bb-attr-2-type" class="er entityLabel">MONDERATOR</text><rect height="22" width="71.484375" y="46" x="71.484375" class="er attributeBoxEven"/><text style="dominant-baseline: middle; font-size: 10.2px;" transform="translate(76.484375,57)" y="0" x="0" id="text-entity-MemberRole-333c5427-bf7a-549d-aab6-54744779d2bb-attr-2-name" class="er entityLabel">MONDERATOR</text><rect height="22" width="71.484375" y="68" x="0" class="er attributeBoxOdd"/><text style="dominant-baseline: middle; font-size: 10.2px;" transform="translate(5,79)" y="0" x="0" id="text-entity-MemberRole-333c5427-bf7a-549d-aab6-54744779d2bb-attr-3-type" class="er entityLabel">GUEST</text><rect height="22" width="71.484375" y="68" x="71.484375" class="er attributeBoxOdd"/><text style="dominant-baseline: middle; font-size: 10.2px;" transform="translate(76.484375,79)" y="0" x="0" id="text-entity-MemberRole-333c5427-bf7a-549d-aab6-54744779d2bb-attr-3-name" class="er entityLabel">GUEST</text></g><g transform="translate(613.1015625,801.1015625 )" id="entity-ChannelType-1ab8779b-007d-5df4-bb2c-eca4de33ccfb"><rect height="90" width="100" y="0" x="0" class="er entityBox"/><text style="dominant-baseline: middle; text-anchor: middle; font-size: 12px;" transform="translate(50,12)" y="0" x="0" id="text-entity-ChannelType-1ab8779b-007d-5df4-bb2c-eca4de33ccfb" class="er entityLabel">ChannelType</text><rect height="22" width="50" y="24" x="0" class="er attributeBoxOdd"/><text style="dominant-baseline: middle; font-size: 10.2px;" transform="translate(5,35)" y="0" x="0" id="text-entity-ChannelType-1ab8779b-007d-5df4-bb2c-eca4de33ccfb-attr-1-type" class="er entityLabel">TEXT</text><rect height="22" width="50" y="24" x="50" class="er attributeBoxOdd"/><text style="dominant-baseline: middle; font-size: 10.2px;" transform="translate(55,35)" y="0" x="0" id="text-entity-ChannelType-1ab8779b-007d-5df4-bb2c-eca4de33ccfb-attr-1-name" class="er entityLabel">TEXT</text><rect height="22" width="50" y="46" x="0" class="er attributeBoxEven"/><text style="dominant-baseline: middle; font-size: 10.2px;" transform="translate(5,57)" y="0" x="0" id="text-entity-ChannelType-1ab8779b-007d-5df4-bb2c-eca4de33ccfb-attr-2-type" class="er entityLabel">AUDIO</text><rect height="22" width="50" y="46" x="50" class="er attributeBoxEven"/><text style="dominant-baseline: middle; font-size: 10.2px;" transform="translate(55,57)" y="0" x="0" id="text-entity-ChannelType-1ab8779b-007d-5df4-bb2c-eca4de33ccfb-attr-2-name" class="er entityLabel">AUDIO</text><rect height="22" width="50" y="68" x="0" class="er attributeBoxOdd"/><text style="dominant-baseline: middle; font-size: 10.2px;" transform="translate(5,79)" y="0" x="0" id="text-entity-ChannelType-1ab8779b-007d-5df4-bb2c-eca4de33ccfb-attr-3-type" class="er entityLabel">VIDEO</text><rect height="22" width="50" y="68" x="50" class="er attributeBoxOdd"/><text style="dominant-baseline: middle; font-size: 10.2px;" transform="translate(55,79)" y="0" x="0" id="text-entity-ChannelType-1ab8779b-007d-5df4-bb2c-eca4de33ccfb-attr-3-name" class="er entityLabel">VIDEO</text></g><g transform="translate(260.5625,20 )" id="entity-Profile-65951d1c-3786-5f44-9bc8-1c33704e73ca"><rect height="182.45898532867432" width="136.328125" y="0" x="0" class="er entityBox"/><text style="dominant-baseline: middle; text-anchor: middle; font-size: 12px;" transform="translate(68.1640625,12)" y="0" x="0" id="text-entity-Profile-65951d1c-3786-5f44-9bc8-1c33704e73ca" class="er entityLabel">Profile</text><rect height="26" width="53.671875" y="24" x="0" class="er attributeBoxOdd"/><text style="dominant-baseline: middle; font-size: 10.2px;" transform="translate(5,37)" y="0" x="0" id="text-entity-Profile-65951d1c-3786-5f44-9bc8-1c33704e73ca-attr-1-type" class="er entityLabel">String</text><rect height="26" width="57.65625" y="24" x="53.671875" class="er attributeBoxOdd"/><text style="dominant-baseline: middle; font-size: 10.2px;" transform="translate(58.671875,37)" y="0" x="0" id="text-entity-Profile-65951d1c-3786-5f44-9bc8-1c33704e73ca-attr-1-name" class="er entityLabel">id</text><rect height="26" width="25" y="24" x="111.328125" class="er attributeBoxOdd"/><text style="dominant-baseline: middle; font-size: 10.2px;" transform="translate(116.328125,37)" y="0" x="0" id="text-entity-Profile-65951d1c-3786-5f44-9bc8-1c33704e73ca-attr-1-comment" class="er entityLabel">🗝️</text><rect height="22.091796875" width="53.671875" y="50" x="0" class="er attributeBoxEven"/><text style="dominant-baseline: middle; font-size: 10.2px;" transform="translate(5,61.0458984375)" y="0" x="0" id="text-entity-Profile-65951d1c-3786-5f44-9bc8-1c33704e73ca-attr-2-type" class="er entityLabel">String</text><rect height="22.091796875" width="57.65625" y="50" x="53.671875" class="er attributeBoxEven"/><text style="dominant-baseline: middle; font-size: 10.2px;" transform="translate(58.671875,61.0458984375)" y="0" x="0" id="text-entity-Profile-65951d1c-3786-5f44-9bc8-1c33704e73ca-attr-2-name" class="er entityLabel">userId</text><rect height="22.091796875" width="25" y="50" x="111.328125" class="er attributeBoxEven"/><text style="dominant-baseline: middle; font-size: 10.2px;" transform="translate(116.328125,61.0458984375)" y="0" x="0" id="text-entity-Profile-65951d1c-3786-5f44-9bc8-1c33704e73ca-attr-2-comment" class="er entityLabel"/><rect height="22.091796875" width="53.671875" y="72.091796875" x="0" class="er attributeBoxOdd"/><text style="dominant-baseline: middle; font-size: 10.2px;" transform="translate(5,83.1376953125)" y="0" x="0" id="text-entity-Profile-65951d1c-3786-5f44-9bc8-1c33704e73ca-attr-3-type" class="er entityLabel">String</text><rect height="22.091796875" width="57.65625" y="72.091796875" x="53.671875" class="er attributeBoxOdd"/><text style="dominant-baseline: middle; font-size: 10.2px;" transform="translate(58.671875,83.1376953125)" y="0" x="0" id="text-entity-Profile-65951d1c-3786-5f44-9bc8-1c33704e73ca-attr-3-name" class="er entityLabel">name</text><rect height="22.091796875" width="25" y="72.091796875" x="111.328125" class="er attributeBoxOdd"/><text style="dominant-baseline: middle; font-size: 10.2px;" transform="translate(116.328125,83.1376953125)" y="0" x="0" id="text-entity-Profile-65951d1c-3786-5f44-9bc8-1c33704e73ca-attr-3-comment" class="er entityLabel"/><rect height="22.091797828674316" width="53.671875" y="94.18359375" x="0" class="er attributeBoxEven"/><text style="dominant-baseline: middle; font-size: 10.2px;" transform="translate(5,105.22949266433716)" y="0" x="0" id="text-entity-Profile-65951d1c-3786-5f44-9bc8-1c33704e73ca-attr-4-type" class="er entityLabel">String</text><rect height="22.091797828674316" width="57.65625" y="94.18359375" x="53.671875" class="er attributeBoxEven"/><text style="dominant-baseline: middle; font-size: 10.2px;" transform="translate(58.671875,105.22949266433716)" y="0" x="0" id="text-entity-Profile-65951d1c-3786-5f44-9bc8-1c33704e73ca-attr-4-name" class="er entityLabel">imageUrl</text><rect height="22.091797828674316" width="25" y="94.18359375" x="111.328125" class="er attributeBoxEven"/><text style="dominant-baseline: middle; font-size: 10.2px;" transform="translate(116.328125,105.22949266433716)" y="0" x="0" id="text-entity-Profile-65951d1c-3786-5f44-9bc8-1c33704e73ca-attr-4-comment" class="er entityLabel"/><rect height="22.091796875" width="53.671875" y="116.27539157867432" x="0" class="er attributeBoxOdd"/><text style="dominant-baseline: middle; font-size: 10.2px;" transform="translate(5,127.32129001617432)" y="0" x="0" id="text-entity-Profile-65951d1c-3786-5f44-9bc8-1c33704e73ca-attr-5-type" class="er entityLabel">String</text><rect height="22.091796875" width="57.65625" y="116.27539157867432" x="53.671875" class="er attributeBoxOdd"/><text style="dominant-baseline: middle; font-size: 10.2px;" transform="translate(58.671875,127.32129001617432)" y="0" x="0" id="text-entity-Profile-65951d1c-3786-5f44-9bc8-1c33704e73ca-attr-5-name" class="er entityLabel">email</text><rect height="22.091796875" width="25" y="116.27539157867432" x="111.328125" class="er attributeBoxOdd"/><text style="dominant-baseline: middle; font-size: 10.2px;" transform="translate(116.328125,127.32129001617432)" y="0" x="0" id="text-entity-Profile-65951d1c-3786-5f44-9bc8-1c33704e73ca-attr-5-comment" class="er entityLabel"/><rect height="22" width="53.671875" y="138.36718845367432" x="0" class="er attributeBoxEven"/><text style="dominant-baseline: middle; font-size: 10.2px;" transform="translate(5,149.36718845367432)" y="0" x="0" id="text-entity-Profile-65951d1c-3786-5f44-9bc8-1c33704e73ca-attr-6-type" class="er entityLabel">DateTime</text><rect height="22" width="57.65625" y="138.36718845367432" x="53.671875" class="er attributeBoxEven"/><text style="dominant-baseline: middle; font-size: 10.2px;" transform="translate(58.671875,149.36718845367432)" y="0" x="0" id="text-entity-Profile-65951d1c-3786-5f44-9bc8-1c33704e73ca-attr-6-name" class="er entityLabel">createdAt</text><rect height="22" width="25" y="138.36718845367432" x="111.328125" class="er attributeBoxEven"/><text style="dominant-baseline: middle; font-size: 10.2px;" transform="translate(116.328125,149.36718845367432)" y="0" x="0" id="text-entity-Profile-65951d1c-3786-5f44-9bc8-1c33704e73ca-attr-6-comment" class="er entityLabel"/><rect height="22.091796875" width="53.671875" y="160.36718845367432" x="0" class="er attributeBoxOdd"/><text style="dominant-baseline: middle; font-size: 10.2px;" transform="translate(5,171.41308689117432)" y="0" x="0" id="text-entity-Profile-65951d1c-3786-5f44-9bc8-1c33704e73ca-attr-7-type" class="er entityLabel">DateTime</text><rect height="22.091796875" width="57.65625" y="160.36718845367432" x="53.671875" class="er attributeBoxOdd"/><text style="dominant-baseline: middle; font-size: 10.2px;" transform="translate(58.671875,171.41308689117432)" y="0" x="0" id="text-entity-Profile-65951d1c-3786-5f44-9bc8-1c33704e73ca-attr-7-name" class="er entityLabel">updatedAt</text><rect height="22.091796875" width="25" y="160.36718845367432" x="111.328125" class="er attributeBoxOdd"/><text style="dominant-baseline: middle; font-size: 10.2px;" transform="translate(116.328125,171.41308689117432)" y="0" x="0" id="text-entity-Profile-65951d1c-3786-5f44-9bc8-1c33704e73ca-attr-7-comment" class="er entityLabel"/></g><g transform="translate(259.9765625,302.458984375 )" id="entity-Server-08cd9ada-0445-5cf2-ab70-3380cc63202d"><rect height="160.36718845367432" width="137.5" y="0" x="0" class="er entityBox"/><text style="dominant-baseline: middle; text-anchor: middle; font-size: 12px;" transform="translate(68.75,12)" y="0" x="0" id="text-entity-Server-08cd9ada-0445-5cf2-ab70-3380cc63202d" class="er entityLabel">Server</text><rect height="26" width="53.671875" y="24" x="0" class="er attributeBoxOdd"/><text style="dominant-baseline: middle; font-size: 10.2px;" transform="translate(5,37)" y="0" x="0" id="text-entity-Server-08cd9ada-0445-5cf2-ab70-3380cc63202d-attr-1-type" class="er entityLabel">String</text><rect height="26" width="58.828125" y="24" x="53.671875" class="er attributeBoxOdd"/><text style="dominant-baseline: middle; font-size: 10.2px;" transform="translate(58.671875,37)" y="0" x="0" id="text-entity-Server-08cd9ada-0445-5cf2-ab70-3380cc63202d-attr-1-name" class="er entityLabel">id</text><rect height="26" width="25" y="24" x="112.5" class="er attributeBoxOdd"/><text style="dominant-baseline: middle; font-size: 10.2px;" transform="translate(117.5,37)" y="0" x="0" id="text-entity-Server-08cd9ada-0445-5cf2-ab70-3380cc63202d-attr-1-comment" class="er entityLabel">🗝️</text><rect height="22.091796875" width="53.671875" y="50" x="0" class="er attributeBoxEven"/><text style="dominant-baseline: middle; font-size: 10.2px;" transform="translate(5,61.0458984375)" y="0" x="0" id="text-entity-Server-08cd9ada-0445-5cf2-ab70-3380cc63202d-attr-2-type" class="er entityLabel">String</text><rect height="22.091796875" width="58.828125" y="50" x="53.671875" class="er attributeBoxEven"/><text style="dominant-baseline: middle; font-size: 10.2px;" transform="translate(58.671875,61.0458984375)" y="0" x="0" id="text-entity-Server-08cd9ada-0445-5cf2-ab70-3380cc63202d-attr-2-name" class="er entityLabel">name</text><rect height="22.091796875" width="25" y="50" x="112.5" class="er attributeBoxEven"/><text style="dominant-baseline: middle; font-size: 10.2px;" transform="translate(117.5,61.0458984375)" y="0" x="0" id="text-entity-Server-08cd9ada-0445-5cf2-ab70-3380cc63202d-attr-2-comment" class="er entityLabel"/><rect height="22.091797828674316" width="53.671875" y="72.091796875" x="0" class="er attributeBoxOdd"/><text style="dominant-baseline: middle; font-size: 10.2px;" transform="translate(5,83.13769578933716)" y="0" x="0" id="text-entity-Server-08cd9ada-0445-5cf2-ab70-3380cc63202d-attr-3-type" class="er entityLabel">String</text><rect height="22.091797828674316" width="58.828125" y="72.091796875" x="53.671875" class="er attributeBoxOdd"/><text style="dominant-baseline: middle; font-size: 10.2px;" transform="translate(58.671875,83.13769578933716)" y="0" x="0" id="text-entity-Server-08cd9ada-0445-5cf2-ab70-3380cc63202d-attr-3-name" class="er entityLabel">imageUrl</text><rect height="22.091797828674316" width="25" y="72.091796875" x="112.5" class="er attributeBoxOdd"/><text style="dominant-baseline: middle; font-size: 10.2px;" transform="translate(117.5,83.13769578933716)" y="0" x="0" id="text-entity-Server-08cd9ada-0445-5cf2-ab70-3380cc63202d-attr-3-comment" class="er entityLabel"/><rect height="22.091796875" width="53.671875" y="94.18359470367432" x="0" class="er attributeBoxEven"/><text style="dominant-baseline: middle; font-size: 10.2px;" transform="translate(5,105.22949314117432)" y="0" x="0" id="text-entity-Server-08cd9ada-0445-5cf2-ab70-3380cc63202d-attr-4-type" class="er entityLabel">String</text><rect height="22.091796875" width="58.828125" y="94.18359470367432" x="53.671875" class="er attributeBoxEven"/><text style="dominant-baseline: middle; font-size: 10.2px;" transform="translate(58.671875,105.22949314117432)" y="0" x="0" id="text-entity-Server-08cd9ada-0445-5cf2-ab70-3380cc63202d-attr-4-name" class="er entityLabel">inviteCode</text><rect height="22.091796875" width="25" y="94.18359470367432" x="112.5" class="er attributeBoxEven"/><text style="dominant-baseline: middle; font-size: 10.2px;" transform="translate(117.5,105.22949314117432)" y="0" x="0" id="text-entity-Server-08cd9ada-0445-5cf2-ab70-3380cc63202d-attr-4-comment" class="er entityLabel"/><rect height="22" width="53.671875" y="116.27539157867432" x="0" class="er attributeBoxOdd"/><text style="dominant-baseline: middle; font-size: 10.2px;" transform="translate(5,127.27539157867432)" y="0" x="0" id="text-entity-Server-08cd9ada-0445-5cf2-ab70-3380cc63202d-attr-5-type" class="er entityLabel">DateTime</text><rect height="22" width="58.828125" y="116.27539157867432" x="53.671875" class="er attributeBoxOdd"/><text style="dominant-baseline: middle; font-size: 10.2px;" transform="translate(58.671875,127.27539157867432)" y="0" x="0" id="text-entity-Server-08cd9ada-0445-5cf2-ab70-3380cc63202d-attr-5-name" class="er entityLabel">createdAt</text><rect height="22" width="25" y="116.27539157867432" x="112.5" class="er attributeBoxOdd"/><text style="dominant-baseline: middle; font-size: 10.2px;" transform="translate(117.5,127.27539157867432)" y="0" x="0" id="text-entity-Server-08cd9ada-0445-5cf2-ab70-3380cc63202d-attr-5-comment" class="er entityLabel"/><rect height="22.091796875" width="53.671875" y="138.27539157867432" x="0" class="er attributeBoxEven"/><text style="dominant-baseline: middle; font-size: 10.2px;" transform="translate(5,149.32129001617432)" y="0" x="0" id="text-entity-Server-08cd9ada-0445-5cf2-ab70-3380cc63202d-attr-6-type" class="er entityLabel">DateTime</text><rect height="22.091796875" width="58.828125" y="138.27539157867432" x="53.671875" class="er attributeBoxEven"/><text style="dominant-baseline: middle; font-size: 10.2px;" transform="translate(58.671875,149.32129001617432)" y="0" x="0" id="text-entity-Server-08cd9ada-0445-5cf2-ab70-3380cc63202d-attr-6-name" class="er entityLabel">updatedAt</text><rect height="22.091796875" width="25" y="138.27539157867432" x="112.5" class="er attributeBoxEven"/><text style="dominant-baseline: middle; font-size: 10.2px;" transform="translate(117.5,149.32129001617432)" y="0" x="0" id="text-entity-Server-08cd9ada-0445-5cf2-ab70-3380cc63202d-attr-6-comment" class="er entityLabel"/></g><g transform="translate(20,573.91796875 )" id="entity-Member-da0843c3-d2cb-5701-b506-40a0471bbb02"><rect height="116.091796875" width="148.703125" y="0" x="0" class="er entityBox"/><text style="dominant-baseline: middle; text-anchor: middle; font-size: 12px;" transform="translate(74.3515625,12)" y="0" x="0" id="text-entity-Member-da0843c3-d2cb-5701-b506-40a0471bbb02" class="er entityLabel">Member</text><rect height="26" width="66.046875" y="24" x="0" class="er attributeBoxOdd"/><text style="dominant-baseline: middle; font-size: 10.2px;" transform="translate(5,37)" y="0" x="0" id="text-entity-Member-da0843c3-d2cb-5701-b506-40a0471bbb02-attr-1-type" class="er entityLabel">String</text><rect height="26" width="57.65625" y="24" x="66.046875" class="er attributeBoxOdd"/><text style="dominant-baseline: middle; font-size: 10.2px;" transform="translate(71.046875,37)" y="0" x="0" id="text-entity-Member-da0843c3-d2cb-5701-b506-40a0471bbb02-attr-1-name" class="er entityLabel">id</text><rect height="26" width="25" y="24" x="123.703125" class="er attributeBoxOdd"/><text style="dominant-baseline: middle; font-size: 10.2px;" transform="translate(128.703125,37)" y="0" x="0" id="text-entity-Member-da0843c3-d2cb-5701-b506-40a0471bbb02-attr-1-comment" class="er entityLabel">🗝️</text><rect height="22" width="66.046875" y="50" x="0" class="er attributeBoxEven"/><text style="dominant-baseline: middle; font-size: 10.2px;" transform="translate(5,61)" y="0" x="0" id="text-entity-Member-da0843c3-d2cb-5701-b506-40a0471bbb02-attr-2-type" class="er entityLabel">MemberRole</text><rect height="22" width="57.65625" y="50" x="66.046875" class="er attributeBoxEven"/><text style="dominant-baseline: middle; font-size: 10.2px;" transform="translate(71.046875,61)" y="0" x="0" id="text-entity-Member-da0843c3-d2cb-5701-b506-40a0471bbb02-attr-2-name" class="er entityLabel">role</text><rect height="22" width="25" y="50" x="123.703125" class="er attributeBoxEven"/><text style="dominant-baseline: middle; font-size: 10.2px;" transform="translate(128.703125,61)" y="0" x="0" id="text-entity-Member-da0843c3-d2cb-5701-b506-40a0471bbb02-attr-2-comment" class="er entityLabel"/><rect height="22" width="66.046875" y="72" x="0" class="er attributeBoxOdd"/><text style="dominant-baseline: middle; font-size: 10.2px;" transform="translate(5,83)" y="0" x="0" id="text-entity-Member-da0843c3-d2cb-5701-b506-40a0471bbb02-attr-3-type" class="er entityLabel">DateTime</text><rect height="22" width="57.65625" y="72" x="66.046875" class="er attributeBoxOdd"/><text style="dominant-baseline: middle; font-size: 10.2px;" transform="translate(71.046875,83)" y="0" x="0" id="text-entity-Member-da0843c3-d2cb-5701-b506-40a0471bbb02-attr-3-name" class="er entityLabel">createdAt</text><rect height="22" width="25" y="72" x="123.703125" class="er attributeBoxOdd"/><text style="dominant-baseline: middle; font-size: 10.2px;" transform="translate(128.703125,83)" y="0" x="0" id="text-entity-Member-da0843c3-d2cb-5701-b506-40a0471bbb02-attr-3-comment" class="er entityLabel"/><rect height="22.091796875" width="66.046875" y="94" x="0" class="er attributeBoxEven"/><text style="dominant-baseline: middle; font-size: 10.2px;" transform="translate(5,105.0458984375)" y="0" x="0" id="text-entity-Member-da0843c3-d2cb-5701-b506-40a0471bbb02-attr-4-type" class="er entityLabel">DateTime</text><rect height="22.091796875" width="57.65625" y="94" x="66.046875" class="er attributeBoxEven"/><text style="dominant-baseline: middle; font-size: 10.2px;" transform="translate(71.046875,105.0458984375)" y="0" x="0" id="text-entity-Member-da0843c3-d2cb-5701-b506-40a0471bbb02-attr-4-name" class="er entityLabel">updatedAt</text><rect height="22.091796875" width="25" y="94" x="123.703125" class="er attributeBoxEven"/><text style="dominant-baseline: middle; font-size: 10.2px;" transform="translate(128.703125,105.0458984375)" y="0" x="0" id="text-entity-Member-da0843c3-d2cb-5701-b506-40a0471bbb02-attr-4-comment" class="er entityLabel"/></g><g transform="translate(587.8828125,562.826171875 )" id="entity-Channel-b37d1e29-5834-522a-9ba8-7b58491447bb"><rect height="138.275390625" width="150.4375" y="0" x="0" class="er entityBox"/><text style="dominant-baseline: middle; text-anchor: middle; font-size: 12px;" transform="translate(75.21875,12)" y="0" x="0" id="text-entity-Channel-b37d1e29-5834-522a-9ba8-7b58491447bb" class="er entityLabel">Channel</text><rect height="26" width="67.78125" y="24" x="0" class="er attributeBoxOdd"/><text style="dominant-baseline: middle; font-size: 10.2px;" transform="translate(5,37)" y="0" x="0" id="text-entity-Channel-b37d1e29-5834-522a-9ba8-7b58491447bb-attr-1-type" class="er entityLabel">String</text><rect height="26" width="57.65625" y="24" x="67.78125" class="er attributeBoxOdd"/><text style="dominant-baseline: middle; font-size: 10.2px;" transform="translate(72.78125,37)" y="0" x="0" id="text-entity-Channel-b37d1e29-5834-522a-9ba8-7b58491447bb-attr-1-name" class="er entityLabel">id</text><rect height="26" width="25" y="24" x="125.4375" class="er attributeBoxOdd"/><text style="dominant-baseline: middle; font-size: 10.2px;" transform="translate(130.4375,37)" y="0" x="0" id="text-entity-Channel-b37d1e29-5834-522a-9ba8-7b58491447bb-attr-1-comment" class="er entityLabel">🗝️</text><rect height="22.091796875" width="67.78125" y="50" x="0" class="er attributeBoxEven"/><text style="dominant-baseline: middle; font-size: 10.2px;" transform="translate(5,61.0458984375)" y="0" x="0" id="text-entity-Channel-b37d1e29-5834-522a-9ba8-7b58491447bb-attr-2-type" class="er entityLabel">String</text><rect height="22.091796875" width="57.65625" y="50" x="67.78125" class="er attributeBoxEven"/><text style="dominant-baseline: middle; font-size: 10.2px;" transform="translate(72.78125,61.0458984375)" y="0" x="0" id="text-entity-Channel-b37d1e29-5834-522a-9ba8-7b58491447bb-attr-2-name" class="er entityLabel">name</text><rect height="22.091796875" width="25" y="50" x="125.4375" class="er attributeBoxEven"/><text style="dominant-baseline: middle; font-size: 10.2px;" transform="translate(130.4375,61.0458984375)" y="0" x="0" id="text-entity-Channel-b37d1e29-5834-522a-9ba8-7b58491447bb-attr-2-comment" class="er entityLabel"/><rect height="22.091796875" width="67.78125" y="72.091796875" x="0" class="er attributeBoxOdd"/><text style="dominant-baseline: middle; font-size: 10.2px;" transform="translate(5,83.1376953125)" y="0" x="0" id="text-entity-Channel-b37d1e29-5834-522a-9ba8-7b58491447bb-attr-3-type" class="er entityLabel">ChannelType</text><rect height="22.091796875" width="57.65625" y="72.091796875" x="67.78125" class="er attributeBoxOdd"/><text style="dominant-baseline: middle; font-size: 10.2px;" transform="translate(72.78125,83.1376953125)" y="0" x="0" id="text-entity-Channel-b37d1e29-5834-522a-9ba8-7b58491447bb-attr-3-name" class="er entityLabel">type</text><rect height="22.091796875" width="25" y="72.091796875" x="125.4375" class="er attributeBoxOdd"/><text style="dominant-baseline: middle; font-size: 10.2px;" transform="translate(130.4375,83.1376953125)" y="0" x="0" id="text-entity-Channel-b37d1e29-5834-522a-9ba8-7b58491447bb-attr-3-comment" class="er entityLabel"/><rect height="22" width="67.78125" y="94.18359375" x="0" class="er attributeBoxEven"/><text style="dominant-baseline: middle; font-size: 10.2px;" transform="translate(5,105.18359375)" y="0" x="0" id="text-entity-Channel-b37d1e29-5834-522a-9ba8-7b58491447bb-attr-4-type" class="er entityLabel">DateTime</text><rect height="22" width="57.65625" y="94.18359375" x="67.78125" class="er attributeBoxEven"/><text style="dominant-baseline: middle; font-size: 10.2px;" transform="translate(72.78125,105.18359375)" y="0" x="0" id="text-entity-Channel-b37d1e29-5834-522a-9ba8-7b58491447bb-attr-4-name" class="er entityLabel">createdAt</text><rect height="22" width="25" y="94.18359375" x="125.4375" class="er attributeBoxEven"/><text style="dominant-baseline: middle; font-size: 10.2px;" transform="translate(130.4375,105.18359375)" y="0" x="0" id="text-entity-Channel-b37d1e29-5834-522a-9ba8-7b58491447bb-attr-4-comment" class="er entityLabel"/><rect height="22.091796875" width="67.78125" y="116.18359375" x="0" class="er attributeBoxOdd"/><text style="dominant-baseline: middle; font-size: 10.2px;" transform="translate(5,127.2294921875)" y="0" x="0" id="text-entity-Channel-b37d1e29-5834-522a-9ba8-7b58491447bb-attr-5-type" class="er entityLabel">DateTime</text><rect height="22.091796875" width="57.65625" y="116.18359375" x="67.78125" class="er attributeBoxOdd"/><text style="dominant-baseline: middle; font-size: 10.2px;" transform="translate(72.78125,127.2294921875)" y="0" x="0" id="text-entity-Channel-b37d1e29-5834-522a-9ba8-7b58491447bb-attr-5-name" class="er entityLabel">updatedAt</text><rect height="22.091796875" width="25" y="116.18359375" x="125.4375" class="er attributeBoxOdd"/><text style="dominant-baseline: middle; font-size: 10.2px;" transform="translate(130.4375,127.2294921875)" y="0" x="0" id="text-entity-Channel-b37d1e29-5834-522a-9ba8-7b58491447bb-attr-5-comment" class="er entityLabel"/></g><rect height="14.000015258789062" width="38.015625" y="245.63553619384766" x="265.872802734375" class="er relationshipLabelBox"/><text style="text-anchor: middle; dominant-baseline: middle; font-size: 12px;" y="252.6355438232422" x="284.880615234375" id="rel1" class="er relationshipLabel">servers</text><rect height="14" width="49.21875" y="273.22125244140625" x="-53.699167251586914" class="er relationshipLabelBox"/><text style="text-anchor: middle; dominant-baseline: middle; font-size: 12px;" y="280.22125244140625" x="-29.089792251586914" id="rel2" class="er relationshipLabel">members</text><rect height="14" width="46.859375" y="351.6859436035156" x="489.55010986328125" class="er relationshipLabelBox"/><text style="text-anchor: middle; dominant-baseline: middle; font-size: 12px;" y="358.6859436035156" x="512.9797973632812" id="rel3" class="er relationshipLabel">channels</text><rect height="14" width="35.734375" y="245.63555908203125" x="354.705322265625" class="er relationshipLabelBox"/><text style="text-anchor: middle; dominant-baseline: middle; font-size: 12px;" y="252.63555908203125" x="372.572509765625" id="rel4" class="er relationshipLabel">profile</text><rect height="14" width="49.21875" y="466.6666564941406" x="111.22628784179688" class="er relationshipLabelBox"/><text style="text-anchor: middle; dominant-baseline: middle; font-size: 12px;" y="473.6666564941406" x="135.83566284179688" id="rel5" class="er relationshipLabel">members</text><rect height="14" width="46.859375" y="467.8319396972656" x="503.0570068359375" class="er relationshipLabelBox"/><text style="text-anchor: middle; dominant-baseline: middle; font-size: 12px;" y="474.8319396972656" x="526.4866943359375" id="rel6" class="er relationshipLabel">channels</text><rect height="14" width="55.21875" y="738.5556640625" x="66.7421875" class="er relationshipLabelBox"/><text style="text-anchor: middle; dominant-baseline: middle; font-size: 12px;" y="745.5556640625" x="94.3515625" id="rel7" class="er relationshipLabel">enum:role</text><rect height="14" width="35.734375" y="341.2839660644531" x="126.84451293945312" class="er relationshipLabelBox"/><text style="text-anchor: middle; dominant-baseline: middle; font-size: 12px;" y="348.2839660644531" x="144.71170043945312" id="rel8" class="er relationshipLabel">profile</text><rect height="14" width="33.15625" y="536.05029296875" x="248.44967651367188" class="er relationshipLabelBox"/><text style="text-anchor: middle; dominant-baseline: middle; font-size: 12px;" y="543.05029296875" x="265.0278015136719" id="rel9" class="er relationshipLabel">server</text><rect height="14" width="57.9375" y="744.1015625" x="634.1328125" class="er relationshipLabelBox"/><text style="text-anchor: middle; dominant-baseline: middle; font-size: 12px;" y="751.1015625" x="663.1015625" id="rel10" class="er relationshipLabel">enum:type</text><rect height="14" width="35.734375" y="260.1983642578125" x="656.8348999023438" class="er relationshipLabelBox"/><text style="text-anchor: middle; dominant-baseline: middle; font-size: 12px;" y="267.1983642578125" x="674.7020874023438" id="rel11" class="er relationshipLabel">profile</text><rect height="14" width="33.15625" y="454.01129150390625" x="596.3722534179688" class="er relationshipLabelBox"/><text style="text-anchor: middle; dominant-baseline: middle; font-size: 12px;" y="461.01129150390625" x="612.9503784179688" id="rel12" class="er relationshipLabel">server</text></svg>